<?xml version="1.0" encoding="UTF-8"?><svg id="_05-Champion" xmlns="http://www.w3.org/2000/svg" viewBox="0 0 64 64"><defs><style>.cls-1{fill:#fff;}.cls-2{fill:#a39fff;}.cls-3{fill:#ad362f;}.cls-4{fill:#ffcb02;}.cls-5{fill:#ff9102;}.cls-6{fill:#c73e36;}.cls-7{fill:#ffab02;}.cls-8{fill:#ff8502;}.cls-9{fill:#fa7a31;}.cls-10{fill:#fe4f46;}.cls-11{fill:#645bff;}</style></defs><polygon class="cls-6" points="48 57 48 63 16 63 16 57 19 57 45 57 48 57"/><polygon class="cls-9" points="45 49 45 57 19 57 19 49 24 49 40 49 45 49"/><polygon class="cls-1" points="39 15.35 35.5 18.93 36.33 24 32 21.61 27.67 24 28.5 18.93 25 15.35 29.84 14.61 32 10 34.16 14.61 39 15.35"/><rect class="cls-7" x="17" y="1" width="30" height="4"/><path class="cls-4" d="m17,22v-12h-7v7c0,2.76,2.24,5,5,5h2Zm32,0c2.76,0,5-2.24,5-5v-7h-7v12h2Zm8-15v10c0,4.42-3.58,8-8,8h-2.3c-1.12,5.54-5.3,9.96-10.69,11.45.08,1.61.59,7.39,3.99,12.55h-16c3.4-5.16,3.91-10.94,3.99-12.55-5.39-1.49-9.57-5.91-10.69-11.45h-2.3c-4.42,0-8-3.58-8-8V7h10v-2h30v2h10Zm-21.5,11.93l3.5-3.58-4.84-.74-2.16-4.61-2.16,4.61-4.84.74,3.5,3.58-.83,5.07,4.33-2.39,4.33,2.39-.83-5.07Z"/><path class="cls-7" d="m23,22V5h-6v2H7v10c0,4.42,3.58,8,8,8h2.3c1.12,5.54,5.3,9.96,10.69,11.45-.08,1.61-.59,7.39-3.99,12.55h16c-3.16-4.8-3.82-10.12-3.96-12.14-7.35-.96-13.04-7.24-13.04-14.86Zm-6,0h-2c-2.76,0-5-2.24-5-5v-7h7v12Z"/><path class="cls-7" d="m47,7v3h7v7c0,2.76-2.24,5-5,5h-2c0,1.03-.1,2.04-.3,3.01,0,0,0,0,0-.01h2.3c4.42,0,8-3.58,8-8V7h-10Z"/><path class="cls-8" d="m15,22c-2.76,0-5-2.24-5-5v-7h7v-3H7v10c0,4.42,3.58,8,8,8h2.3s0,0,0,.01c-.2-.97-.3-1.98-.3-3.01h-2Z"/><path class="cls-5" d="m17,1v4h30v-2h-22c-1.1,0-2-.9-2-2h0s-6,0-6,0Z"/><path class="cls-10" d="m19,49v8h26v-3h-19c-1.66,0-3-1.34-3-3v-2h-4Z"/><path class="cls-3" d="m16,57v6h32v-2h-25c-1.66,0-3-1.34-3-3v-1h-4Z"/><rect class="cls-1" x="27" y="52" width="10" height="2" rx="1" ry="1"/><path class="cls-2" d="m53.19,19.72c.52.98.81,2.09.81,3.28v21l-3-4-3,4v-22h-1v-6c2.68,0,5.01,1.51,6.19,3.72Z"/><path class="cls-2" d="m10.81,19.72c1.18-2.21,3.51-3.72,6.19-3.72v6h-1v22l-3-4-3,4v-21c0-1.19.29-2.3.81-3.28Z"/><path class="cls-11" d="m53,20h.32c-.04-.09-.08-.19-.13-.28-1.18-2.21-3.51-3.72-6.19-3.72v6h1v22l3-4v-18c0-1.1.9-2,2-2Z"/><path class="cls-11" d="m10.81,19.72c-.05.09-.08.19-.13.28h.32c1.1,0,2,.9,2,2v18l3,4v-22h1v-6c-2.68,0-5.01,1.51-6.19,3.72Z"/></svg>