<?xml version="1.0" encoding="UTF-8"?><svg id="_11-Trophy" xmlns="http://www.w3.org/2000/svg" viewBox="0 0 64 64"><defs><style>.cls-1{fill:#a8b7d4;}.cls-2{fill:#fff;}.cls-3{fill:#4848d3;}.cls-4{fill:#ffda4d;}.cls-5{fill:#ffcb02;}.cls-6{fill:#ff9102;}.cls-7{fill:#ffab02;}.cls-8{fill:#774e9d;}.cls-9{fill:#645bff;}.cls-10{fill:#c1cfe8;}</style></defs><rect class="cls-10" x="26" y="47" width="12" height="4"/><polygon class="cls-10" points="48 59 48 63 16 63 16 59 21 59 43 59 48 59"/><polygon class="cls-9" points="43 51 43 59 21 59 21 51 26 51 38 51 43 51"/><polygon class="cls-9" points="46 9 40 47 38 47 26 47 24 47 18 9 27.59 9 28.5 9.93 27.67 15 32 12.61 36.33 15 35.5 9.93 36.41 9 46 9"/><polygon class="cls-4" points="36.41 9 35.5 9.93 36.33 15 32 12.61 27.67 15 28.5 9.93 27.59 9 25 6.35 29.84 5.61 32 1 34.16 5.61 39 6.35 36.41 9"/><polygon class="cls-8" points="27.5 11.93 26.67 17 31 14.61 35.33 17 34.87 14.19 32 12.61 27.67 15 28.5 9.93 27.59 9 24.64 9 26.59 11 27.5 11.93"/><path class="cls-1" d="m26,51v-4h12v2h-8c-.55,0-1,.45-1,1v1h-3Z"/><path class="cls-3" d="m21,51v8h22v-3h-15c-1.66,0-3-1.34-3-3v-2h-4Z"/><path class="cls-1" d="m16,59v4h32v-2h-27c-.55,0-1-.45-1-1v-1h-4Z"/><path class="cls-3" d="m25.89,37.32l-4.72-28.32h-3.17l6,38h16l.47-3h-6.7c-3.91,0-7.25-2.83-7.89-6.68Z"/><polygon class="cls-5" points="32 1 29.84 5.6 32 8 32 1"/><polygon class="cls-4" points="29.84 5.6 29.84 5.61 25 6.35 25.02 6.37 32 8 29.84 5.6"/><polygon class="cls-4" points="34.16 5.6 32 1 32 8 34.16 5.6"/><polygon class="cls-7" points="35.51 9.92 36.41 9 38.98 6.37 32 8 35.51 9.92"/><polygon class="cls-5" points="38.98 6.37 39 6.35 34.16 5.61 34.16 5.6 32 8 38.98 6.37"/><polygon class="cls-7" points="25.02 6.37 27.59 9 28.49 9.92 32 8 25.02 6.37"/><polygon class="cls-5" points="35.51 9.92 32 8 36.32 14.97 35.5 9.93 35.51 9.92"/><polygon class="cls-7" points="32 12.61 36.33 15 36.32 14.97 32 8 32 12.61"/><polygon class="cls-4" points="28.49 9.92 28.5 9.93 27.68 14.97 32 8 28.49 9.92"/><polygon class="cls-6" points="27.68 14.97 27.67 15 32 12.61 32 8 27.68 14.97"/><rect class="cls-2" x="33" y="20" width="6" height="2" rx="1" ry="1"/><rect class="cls-2" x="25" y="20" width="6" height="2" rx="1" ry="1"/></svg>