<?xml version="1.0" encoding="UTF-8"?><svg id="_10-Trophy" xmlns="http://www.w3.org/2000/svg" viewBox="0 0 64 64"><defs><style>.cls-1{fill:#a8b7d4;}.cls-2{fill:#7777f7;}.cls-3{fill:#4848d3;}.cls-4{fill:#ffda4d;}.cls-5{fill:#fbfbfb;}.cls-6{fill:#ffab02;}.cls-7{fill:#d6e0eb;}.cls-8{fill:#645bff;}</style></defs><rect class="cls-4" x="25" y="54" width="16" height="4"/><rect class="cls-7" x="23" y="45" width="20" height="4"/><polygon class="cls-5" points="40 25.35 36.5 28.93 37.33 34 33 31.61 28.67 34 29.5 28.93 26 25.35 30.84 24.61 33 20 35.16 24.61 40 25.35"/><path class="cls-8" d="m46,49l4,14H16l4-14h26Zm-5,9v-4h-16v4h16Z"/><path class="cls-8" d="m50,13l-6,32h-22L14,1s12,12,36,12Zm-13.5,15.93l3.5-3.58-4.84-.74-2.16-4.61-2.16,4.61-4.84.74,3.5,3.58-.83,5.07,4.33-2.39,4.33,2.39-.83-5.07Z"/><path class="cls-1" d="m43,45h-20v4h3c0-1.1.9-2,2-2h15v-2Z"/><path class="cls-3" d="m37.6,40c-6.73,0-12.51-4.79-13.76-11.4l-4.47-23.61c-3.58-2.2-5.38-3.99-5.38-3.99l8,44h22l.94-5h-7.34Z"/><path class="cls-2" d="m14.07,1.07s0,0,.01.01c0,0,0,0-.01-.01Z"/><polygon class="cls-2" points="14.65 4.59 14.65 4.59 14 1 14.65 4.59"/><path class="cls-2" d="m50,13c-14.73,0-24.94-4.52-30.62-8.01,0,0,0,0,0,0l.64,3.38c5.72,3.38,15.52,7.51,29.42,7.62l.56-2.99Z"/><path class="cls-2" d="m14,1s.03.03.07.07c-.04-.04-.07-.07-.07-.07Z"/><path class="cls-2" d="m14.09,1.09c.38.37,2.15,1.97,5.29,3.9-3.12-1.92-4.89-3.52-5.29-3.9Z"/><path class="cls-3" d="m27.86,60c-3.96,0-6.83-3.76-5.79-7.58l.93-3.42h-3l-4,14h34l-.86-3h-21.29Z"/><polygon class="cls-6" points="25 54 41 54 41 58 40 58 40 55 25 55 25 54"/></svg>